{"glyphs":{"\u0000":{"ha":0,"x_min":0,"x_max":0,"o":""},"\r":{"ha":347,"x_min":0,"x_max":0,"o":""}," ":{"ha":361,"x_min":0,"x_max":0,"o":""},"A":{"ha":1082,"x_min":0,"x_max":0,"o":"m 164 0 l 164 347 l 918 347 l 918 0 l 1013 0 l 1013 642 b 682 972 1013 893 933 972 l 400 972 b 69 642 149 972 69 893 l 69 0 z m 164 438 l 164 675 b 371 882 164 826 221 882 l 713 882 b 918 675 863 882 918 826 l 918 438 z "},"o":{"ha":878,"x_min":0,"x_max":0,"o":"m 56 217 b 272 0 56 76 132 0 l 606 0 b 822 217 746 0 822 76 l 822 478 b 606 694 822 618 746 694 l 272 694 b 56 478 132 694 56 618 z m 732 214 b 604 86 732 126 692 86 l 274 86 b 146 214 186 86 146 126 l 146 481 b 274 608 146 568 186 608 l 604 608 b 732 481 692 608 732 568 z "},"h":{"ha":833,"x_min":0,"x_max":0,"o":"m 69 0 l 160 0 l 160 481 b 288 608 160 568 200 608 l 553 608 b 681 481 640 608 681 568 l 681 0 l 771 0 l 771 478 b 554 694 771 618 694 694 l 286 694 b 160 665 236 694 193 685 l 160 972 l 69 972 z "},"n":{"ha":826,"x_min":0,"x_max":0,"o":"m 153 0 l 153 481 b 281 608 153 568 193 608 l 546 608 b 674 481 633 608 674 568 l 674 0 l 764 0 l 764 478 b 547 694 764 618 688 694 l 279 694 b 63 478 139 694 63 618 l 63 0 z "},"i":{"ha":224,"x_min":0,"x_max":0,"o":"m 56 861 l 168 861 l 168 972 l 56 972 z m 67 0 l 157 0 l 157 694 l 67 694 z "},"e":{"ha":836,"x_min":0,"x_max":0,"o":"m 740 86 l 296 86 b 160 207 208 86 160 119 l 160 293 l 550 292 b 767 468 690 292 767 369 l 767 519 b 550 694 767 618 690 694 l 286 694 b 69 478 146 694 69 618 l 69 217 b 286 0 69 76 146 0 l 740 0 z m 160 481 b 288 608 160 568 200 608 l 549 608 b 676 522 636 608 676 568 l 676 465 b 549 378 676 419 636 378 l 160 379 z "},"d":{"ha":828,"x_min":0,"x_max":0,"o":"m 758 0 l 758 972 l 668 972 l 668 665 b 542 694 635 685 592 694 l 272 694 b 56 478 132 694 56 618 l 56 217 b 272 0 56 76 132 0 z m 668 86 l 274 86 b 146 214 186 86 146 126 l 146 481 b 274 608 146 568 186 608 l 540 608 b 668 481 628 608 668 568 z "},"c":{"ha":756,"x_min":0,"x_max":0,"o":"m 714 86 l 274 86 b 146 214 186 86 146 126 l 146 481 b 274 608 146 568 186 608 l 714 608 l 714 694 l 272 694 b 56 478 132 694 56 618 l 56 217 b 272 0 56 76 132 0 l 714 0 z "},"s":{"ha":782,"x_min":0,"x_max":0,"o":"m 258 694 b 42 519 118 694 42 618 l 42 485 b 258 308 42 386 118 307 l 260 308 l 394 310 l 529 310 b 657 222 617 310 657 268 l 657 172 b 529 86 657 126 617 86 l 28 86 l 28 0 l 531 0 b 747 175 671 0 747 76 l 747 219 b 531 396 747 318 671 397 l 260 394 b 132 482 172 394 132 436 l 132 522 b 260 608 132 568 172 608 l 719 608 l 719 694 z "},"O":{"ha":1197,"x_min":0,"x_max":0,"o":"m 69 331 b 400 0 69 79 149 0 l 797 0 b 1128 331 1049 0 1128 79 l 1128 642 b 797 972 1128 893 1049 972 l 400 972 b 69 642 149 972 69 893 z m 1033 296 b 828 90 1033 146 978 90 l 371 90 b 164 296 219 90 164 146 l 164 675 b 371 882 164 825 219 882 l 828 882 b 1033 675 978 882 1033 825 z "},"H":{"ha":1115,"x_min":0,"x_max":0,"o":"m 83 0 l 178 0 l 178 486 l 938 486 l 938 0 l 1032 0 l 1032 972 l 938 972 l 938 576 l 178 576 l 178 972 l 83 972 z "},"N":{"ha":1115,"x_min":0,"x_max":0,"o":"m 938 94 b 732 268 861 94 831 86 l 415 853 b 178 972 360 956 272 972 l 83 972 l 83 0 l 178 0 l 178 878 b 383 704 254 878 286 885 l 700 119 b 938 0 757 14 843 0 l 1032 0 l 1032 972 l 938 972 z "},"I":{"ha":261,"x_min":0,"x_max":0,"o":"m 83 0 l 178 0 l 178 972 l 83 972 z "},"E":{"ha":982,"x_min":0,"x_max":0,"o":"m 926 972 l 400 972 b 69 642 149 972 69 893 l 69 331 b 400 0 69 79 149 0 l 940 0 l 940 90 l 371 90 b 164 296 219 90 164 146 l 164 486 l 774 486 l 774 576 l 164 576 l 164 675 b 371 882 164 825 219 882 l 926 882 z "},"D":{"ha":1161,"x_min":0,"x_max":0,"o":"m 83 0 l 761 0 b 1092 331 1013 0 1092 79 l 1092 642 b 761 972 1092 893 1013 972 l 83 972 z m 178 90 l 178 882 l 790 882 b 997 675 942 882 997 825 l 997 296 b 790 90 997 146 942 90 z "},"C":{"ha":982,"x_min":0,"x_max":0,"o":"m 926 972 l 400 972 b 69 642 149 972 69 893 l 69 331 b 400 0 69 79 149 0 l 940 0 l 940 90 l 371 90 b 164 296 219 90 164 146 l 164 675 b 371 882 164 825 219 882 l 926 882 z "},"S":{"ha":968,"x_min":0,"x_max":0,"o":"m 857 972 l 386 972 b 56 725 135 972 56 893 l 56 696 b 357 449 56 535 129 449 l 625 449 b 832 299 776 449 832 393 l 832 242 b 625 90 832 147 776 90 l 42 90 l 42 0 l 596 0 b 926 261 847 0 926 79 l 926 278 b 625 539 926 453 853 539 l 357 539 b 150 675 206 539 150 594 l 150 744 b 357 882 150 825 206 882 l 857 882 z "},"a":{"ha":892,"x_min":0,"x_max":0,"o":"m 110 608 l 618 608 b 746 481 706 608 746 568 l 746 401 l 258 403 b 42 226 118 403 42 325 l 42 175 b 258 0 42 76 118 0 l 619 0 b 836 217 760 0 836 76 l 836 478 b 619 694 836 618 760 694 l 110 694 z m 746 214 b 618 86 746 126 706 86 l 260 86 b 132 172 172 86 132 126 l 132 229 b 260 317 132 275 172 317 l 746 315 z "},"b":{"ha":828,"x_min":0,"x_max":0,"o":"m 69 0 l 556 0 b 772 217 696 0 772 76 l 772 478 b 556 694 772 618 696 694 l 286 694 b 160 665 236 694 193 685 l 160 972 l 69 972 z m 160 86 l 160 481 b 288 608 160 568 200 608 l 554 608 b 682 481 642 608 682 568 l 682 214 b 554 86 682 126 642 86 z "},"f":{"ha":469,"x_min":0,"x_max":0,"o":"m 160 0 l 160 608 l 368 608 l 368 694 l 160 694 l 160 758 b 288 886 160 846 200 886 l 497 886 l 499 972 l 286 972 b 69 756 146 972 69 896 l 69 0 z "},"g":{"ha":842,"x_min":0,"x_max":0,"o":"m 772 694 l 286 694 b 69 478 146 694 69 618 l 69 217 b 286 0 69 76 146 0 l 556 0 b 682 29 606 0 649 10 l 682 -33 b 554 -164 682 -121 642 -164 l 113 -164 l 111 -250 l 556 -250 b 772 -33 696 -250 772 -174 z m 682 608 l 682 214 b 554 86 682 126 642 86 l 288 86 b 160 214 200 86 160 126 l 160 481 b 288 608 160 568 200 608 z "},"j":{"ha":306,"x_min":0,"x_max":0,"o":"m 138 861 l 250 861 l 250 972 l 138 972 z m 149 694 l 149 -64 b 21 -192 149 -151 108 -192 l -43 -192 l -44 -278 l 22 -278 b 239 -61 163 -278 239 -201 l 239 694 z "},"k":{"ha":713,"x_min":0,"x_max":0,"o":"m 525 694 l 160 418 l 160 972 l 69 972 l 69 0 l 160 0 l 160 318 l 558 0 l 699 0 l 239 369 l 668 694 z "},"l":{"ha":229,"x_min":0,"x_max":0,"o":"m 69 972 l 69 0 l 160 0 l 160 972 z "},"m":{"ha":1243,"x_min":0,"x_max":0,"o":"m 153 0 l 153 481 b 281 608 153 568 193 608 l 449 608 b 576 481 536 608 576 568 l 576 0 l 667 0 l 667 481 b 794 608 667 568 707 608 l 963 608 b 1090 481 1050 608 1090 568 l 1090 0 l 1181 0 l 1181 478 b 964 694 1181 618 1104 694 l 793 694 b 622 626 715 694 658 671 b 450 694 586 671 528 694 l 279 694 b 63 478 139 694 63 618 l 63 0 z "},"p":{"ha":828,"x_min":0,"x_max":0,"o":"m 69 694 l 69 -250 l 160 -250 l 160 29 b 286 0 193 10 236 0 l 556 0 b 772 217 696 0 772 76 l 772 478 b 556 694 772 618 696 694 z m 160 608 l 554 608 b 682 481 642 608 682 568 l 682 214 b 554 86 682 126 642 86 l 288 86 b 160 214 200 86 160 126 z "},"q":{"ha":828,"x_min":0,"x_max":0,"o":"m 758 694 l 272 694 b 56 478 132 694 56 618 l 56 217 b 272 0 56 76 132 0 l 542 0 b 668 29 592 0 635 10 l 668 -250 l 758 -250 z m 668 608 l 668 214 b 540 86 668 126 628 86 l 274 86 b 146 214 186 86 146 126 l 146 481 b 274 608 146 568 186 608 z "},"r":{"ha":594,"x_min":0,"x_max":0,"o":"m 160 0 l 160 481 b 288 608 160 568 200 608 l 593 608 l 594 694 l 286 694 b 69 478 146 694 69 618 l 69 0 z "},"t":{"ha":513,"x_min":0,"x_max":0,"o":"m 69 217 b 286 0 69 76 146 0 l 499 0 l 497 86 l 288 86 b 160 214 200 86 160 126 l 160 608 l 368 608 l 368 694 l 160 694 l 160 903 l 69 903 z "},"u":{"ha":826,"x_min":0,"x_max":0,"o":"m 63 217 b 279 0 63 76 139 0 l 547 0 b 764 217 688 0 764 76 l 764 694 l 674 694 l 674 214 b 546 86 674 126 633 86 l 281 86 b 153 214 193 86 153 126 l 153 694 l 63 694 z "},"v":{"ha":824,"x_min":0,"x_max":0,"o":"m 361 0 l 463 0 l 796 694 l 692 694 l 413 107 l 132 694 l 28 694 z "},"w":{"ha":1204,"x_min":0,"x_max":0,"o":"m 292 0 l 388 0 l 603 565 l 817 0 l 913 0 l 1176 694 l 1078 694 l 865 128 l 651 694 l 553 694 l 340 128 l 126 694 l 28 694 z "},"x":{"ha":739,"x_min":0,"x_max":0,"o":"m 308 374 l 14 0 l 131 0 l 367 300 l 608 0 l 725 0 l 435 364 l 694 694 l 575 694 l 375 438 l 169 694 l 50 694 z "},"y":{"ha":826,"x_min":0,"x_max":0,"o":"m 361 0 l 347 -29 b 203 -164 308 -112 290 -164 l 83 -164 l 82 -250 l 204 -250 b 449 -29 344 -250 385 -161 l 799 694 l 694 694 l 413 106 l 132 694 l 28 694 z "},"z":{"ha":781,"x_min":0,"x_max":0,"o":"m 697 694 l 83 694 l 83 608 l 565 608 l 42 86 l 42 0 l 739 0 l 739 86 l 171 86 l 697 608 z "},"B":{"ha":1154,"x_min":0,"x_max":0,"o":"m 83 0 l 761 0 b 1092 261 1013 0 1092 79 l 1092 315 b 914 556 1092 443 1053 521 b 994 679 975 581 994 631 l 994 781 b 664 972 994 893 915 972 l 83 972 z m 178 578 l 178 882 l 693 882 b 900 758 844 882 900 825 l 900 700 b 693 578 900 633 844 578 z m 178 90 l 178 486 l 790 486 b 997 349 942 486 997 429 l 997 226 b 790 90 997 146 942 90 z "},"F":{"ha":843,"x_min":0,"x_max":0,"o":"m 829 972 l 400 972 b 69 642 149 972 69 893 l 69 0 l 164 0 l 164 444 l 704 444 l 704 535 l 164 535 l 164 675 b 371 882 164 825 219 882 l 829 882 z "},"G":{"ha":1065,"x_min":0,"x_max":0,"o":"m 954 972 l 400 972 b 69 642 149 972 69 893 l 69 331 b 400 0 69 79 149 0 l 679 0 b 1010 261 931 0 1010 79 l 1010 486 l 571 486 l 571 396 l 915 396 l 915 226 b 708 90 915 146 860 90 l 371 90 b 164 296 219 90 164 146 l 164 675 b 371 882 164 825 219 882 l 954 882 z "},"J":{"ha":271,"x_min":0,"x_max":0,"o":"m 93 46 b -21 -158 93 -104 54 -158 l -92 -158 l -92 -250 l -46 -250 b 188 81 122 -250 188 -171 l 188 972 l 93 972 z "},"K":{"ha":918,"x_min":0,"x_max":0,"o":"m 772 0 l 918 0 l 263 525 l 831 972 l 694 972 l 178 571 l 178 972 l 83 972 l 83 0 l 178 0 l 178 478 z "},"L":{"ha":899,"x_min":0,"x_max":0,"o":"m 69 972 l 69 289 b 358 0 69 38 107 0 l 899 0 l 899 90 l 329 90 b 164 254 192 90 164 118 l 164 972 z "},"M":{"ha":1428,"x_min":0,"x_max":0,"o":"m 714 88 b 543 397 665 88 608 242 l 344 871 b 178 972 310 953 247 969 l 83 972 l 83 0 l 178 0 l 178 879 b 303 742 238 871 261 843 l 511 231 b 714 0 558 115 606 0 b 917 231 822 0 869 115 l 1122 735 b 1250 881 1169 849 1192 875 l 1250 0 l 1344 0 l 1344 972 l 1250 972 b 1083 871 1181 969 1118 953 l 885 397 b 714 88 815 231 763 88 z "},"P":{"ha":1036,"x_min":0,"x_max":0,"o":"m 83 0 l 178 0 l 178 418 l 664 418 b 994 651 915 418 994 497 l 994 739 b 664 972 994 893 915 972 l 83 972 z m 178 508 l 178 882 l 693 882 b 900 717 844 882 900 825 l 900 672 b 693 508 900 564 844 508 z "},"Q":{"ha":1197,"x_min":0,"x_max":0,"o":"m 69 331 b 400 0 69 79 149 0 l 689 0 l 904 -250 l 1026 -250 l 811 0 b 1128 331 1051 3 1128 85 l 1128 642 b 797 972 1128 893 1049 972 l 400 972 b 69 642 149 972 69 893 z m 1033 296 b 828 90 1033 146 978 90 l 371 90 b 164 296 219 90 164 146 l 164 675 b 371 882 164 825 219 882 l 828 882 b 1033 675 978 882 1033 825 z "},"R":{"ha":1064,"x_min":0,"x_max":0,"o":"m 83 0 l 178 0 l 178 488 l 488 488 l 876 0 l 994 0 l 606 488 l 664 488 b 994 679 915 488 994 567 l 994 781 b 664 972 994 893 915 972 l 83 972 z m 178 578 l 178 882 l 693 882 b 900 758 844 882 900 825 l 900 700 b 693 578 900 633 844 578 z "},"T":{"ha":924,"x_min":0,"x_max":0,"o":"m 414 0 l 508 0 l 508 882 l 896 882 l 896 972 l 28 972 l 28 882 l 414 882 z "},"U":{"ha":1086,"x_min":0,"x_max":0,"o":"m 69 972 l 69 331 b 400 0 69 79 149 0 l 686 0 b 1017 331 938 0 1017 79 l 1017 972 l 922 972 l 922 296 b 717 90 922 146 867 90 l 371 90 b 164 296 219 90 164 146 l 164 972 z "},"V":{"ha":1069,"x_min":0,"x_max":0,"o":"m 588 0 l 588 1 l 1042 972 l 938 972 l 535 113 l 132 972 l 28 972 l 483 1 l 482 0 z "},"W":{"ha":1531,"x_min":0,"x_max":0,"o":"m 472 0 l 472 1 l 765 831 l 1060 1 l 1058 0 l 1160 0 l 1160 1 l 1503 972 l 1403 972 l 1110 143 l 815 972 l 715 972 l 422 143 l 128 972 l 28 972 l 372 1 l 371 0 z "},"X":{"ha":1040,"x_min":0,"x_max":0,"o":"m 1026 0 l 588 519 l 946 972 l 826 972 l 529 589 l 206 972 l 86 972 l 461 528 l 14 0 l 135 0 l 521 458 l 907 0 z "},"Y":{"ha":985,"x_min":0,"x_max":0,"o":"m 490 457 l 135 972 l 14 972 l 446 363 l 446 0 l 540 0 l 540 369 l 971 972 l 851 972 z "},"Z":{"ha":1004,"x_min":0,"x_max":0,"o":"m 161 90 l 935 882 l 935 972 l 97 972 l 97 882 l 801 882 l 28 90 l 28 0 l 976 0 l 976 90 z "}}}
